<svg xmlns="http://www.w3.org/2000/svg" viewBox="0 0 49.999 29.279"><path fill="#E8710A" d="M4.27645316 4.29688964c-5.70185775 5.71359276-5.70185775 14.9641335 0 20.6775666l4.98362724.00003113.0007049-4.98634146c-2.95682337-2.95331085-2.96616348-7.73991765-.02148385-10.705203v-.00195344l.00002315-4.98498435zm41.439753 0-4.96358991.0001793.00072486 4.98418605c7.152768 7.152768-3.6186939 17.8627608-10.7714619 10.7091945l-4.98530367-.0001844.00092842 4.9845852c5.715828 5.7206178 14.9864859 5.74624322 20.7071037.03125024 5.7222144-5.715828 5.7267647-14.9864859.01171824-20.7087003z"/><path fill="#F9AB00" d="m4.2754952 4.296251 4.9638294 4.9853835c2.96177283-2.96520552 7.76737917-2.96520552 10.729152 0l3.6123075-6.1884216-.2115495-.1692396C17.5464344-1.4203753 9.4173455-.836818 4.2754952 4.296251zm15.6937797 15.7153338c-2.961693 2.9656845-7.7467032 2.9433321-10.7091945-.0223524l-4.9845852 4.9853835c5.1298758 5.085171 13.2022854 5.6902824 19.0099179 1.3946301l.231507-.1899954M24.99617 4.2978476c-5.7014586 5.7126348-5.7014586 14.9633352 0 20.6775666l4.9845852-4.9853835c-7.152768-7.152768 3.6186939-17.8611642 10.7714619-10.7083962l4.9638294-4.9845852c-5.7182229-5.7293991-15.0016536-5.7293991-20.7198765 0z"/></svg>